# xmcd
#
# Track frame offsets:
#	150
#	16047
#	29125
#	42227
#	53137
#	64192
#	81070
#	93320
#	104340
#	113722
#
# Disc length: 1714 seconds
#
# Revision: 0
# Processed by: cddbd v1.5.2PL0 Copyright (c) Steve Scherf et al.
# Submitted via: EZCDDA 4.3.3.2
#
DISCID=7906b00a
DTITLE=Boxcar Willie - Super Hits
DYEAR=1900
DGENRE=Country
TTITLE0=From a Boxcar Door
TTITLE1="T" for Texas
TTITLE2=Country Music Nightmare
TTITLE3=Hobo's Lament
TTITLE4=Freight Train Blues
TTITLE5=Take Me Home
TTITLE6=Mister, Can You Spare a Dime
TTITLE7=Last Train to Heaven
TTITLE8=Hank, You Make Me Cry
TTITLE9=Train Medley
EXTD=
EXTT0=
EXTT1=
EXTT2=
EXTT3=
EXTT4=
EXTT5=
EXTT6=
EXTT7=
EXTT8=
EXTT9=
PLAYORDER=
